<svg xmlns="http://www.w3.org/2000/svg" viewBox="0 0 448 512"><path fill="#d0d0d0" d="M408.78 128c-22.42-.42-40.78 18.36-40.78 40.79V256h-8V79.79c0-22.43-18.36-41.21-40.78-40.78A40 40 0 00280 79v177h-8V40.79C272 18.36 253.64-.42 231.22.01A40 40 0 00192 40v216h-8V80.79c0-22.43-18.36-41.21-40.78-40.78A40 40 0 00104 80v236l-31.65-43.53a40 40 0 10-64.7 47.06l125.6 172.7A48 48 0 00172.07 512h197.6a48 48 0 0046.72-37l26.5-112.67a192.01 192.01 0 005.1-43.97V168a40 40 0 00-39.2-40z"/><path fill="none" stroke="#0d46a0" stroke-linecap="round" stroke-width="74.41" d="M324.68 390.78a53.42 53.42 0 01-53.42 53.42 53.42 53.42 0 01-53.42-53.42 53.42 53.42 0 0153.42-53.42 53.42 53.42 0 0153.42 53.42z" paint-order="stroke markers fill"/><path fill="#83a5cc" d="M324.66 390.76a53.41 53.41 0 01-53.41 53.41 53.41 53.41 0 01-53.41-53.4 53.41 53.41 0 0153.4-53.42 53.41 53.41 0 0153.42 53.41z" paint-order="stroke markers fill"/><path fill="#dfdfdf" d="M289.84 390.75a18.58 18.58 0 01-18.58 18.58 18.58 18.58 0 01-18.58-18.58 18.58 18.58 0 0118.58-18.58 18.58 18.58 0 0118.58 18.58z" paint-order="stroke markers fill"/><rect width="605" height="528.5" x="-90.5" y="-1" fill="none" paint-order="stroke markers fill" ry="28.64"/></svg>